<svg id="Capa_1" enable-background="new 0 0 510.833 510.833" height="512" viewBox="0 0 510.833 510.833" width="512" xmlns="http://www.w3.org/2000/svg"><g><path d="m255.417 65.563c4.143 0 7.5-3.357 7.5-7.5v-50.563c0-4.143-3.357-7.5-7.5-7.5s-7.5 3.357-7.5 7.5v50.563c0 4.143 3.357 7.5 7.5 7.5z"/><path d="m115.487 119.132c2.93 2.928 7.677 2.928 10.607 0 2.929-2.93 2.929-7.678 0-10.607l-35.754-35.755c-2.929-2.927-7.677-2.929-10.607 0-2.929 2.93-2.929 7.678 0 10.607z"/><path d="m65.027 240.953h-50.564c-4.143 0-7.5 3.357-7.5 7.5s3.357 7.5 7.5 7.5h50.563c4.143 0 7.5-3.357 7.5-7.5s-3.357-7.5-7.499-7.5z"/><path d="m115.487 377.775-35.754 35.754c-2.929 2.93-2.929 7.678 0 10.607 2.93 2.928 7.677 2.928 10.607 0l35.754-35.754c2.929-2.93 2.929-7.678 0-10.607-2.929-2.927-7.677-2.927-10.607 0z"/><path d="m395.346 377.775c-2.93-2.928-7.678-2.928-10.607 0-2.929 2.93-2.929 7.678 0 10.607l35.754 35.754c2.93 2.928 7.677 2.928 10.607 0 2.929-2.93 2.929-7.678 0-10.607z"/><path d="m496.37 240.953h-50.563c-4.143 0-7.5 3.357-7.5 7.5s3.357 7.5 7.5 7.5h50.563c4.143 0 7.5-3.357 7.5-7.5s-3.358-7.5-7.5-7.5z"/><path d="m420.493 72.77-35.754 35.755c-2.929 2.93-2.929 7.678 0 10.607 2.93 2.928 7.677 2.928 10.607 0l35.754-35.755c2.929-2.93 2.929-7.678 0-10.607-2.93-2.928-7.678-2.928-10.607 0z"/><path d="m403.579 233.293c0-82.872-66.465-150.293-148.162-150.293-28.618 0-56.394 8.293-80.324 23.982-23.282 15.265-41.842 36.74-53.673 62.103-1.751 3.754-.127 8.217 3.626 9.968 3.757 1.753 8.217.127 9.968-3.626 21.939-47.035 69.2-77.427 120.403-77.427 73.426 0 133.162 60.692 133.162 135.293 0 35.434-13.39 68.934-37.702 94.327-14.013 14.635-25.941 28.619-29.01 48.213h-130.939c-3.867-20.341-17.742-34.612-30.21-47.425-24.803-25.49-38.463-59.27-38.463-95.115 0-8.851.847-17.703 2.516-26.312.789-4.066-1.868-8.002-5.935-8.791-4.066-.783-8.002 1.869-8.791 5.936-1.852 9.547-2.79 19.36-2.79 29.167 0 39.775 15.169 77.27 42.713 105.576 15.819 16.256 27.017 29.232 27.017 48.251 0 .066.001.134.003.2l.43 44.013c0 14.279 7.617 26.812 19 33.752v8.248c0 20.678 16.822 37.5 37.5 37.5h46c20.678 0 37.5-16.822 37.5-37.5v-8.248c11.383-6.94 19-19.473 19-33.752 0 0-.053-49.026-.153-49.515 1.423-17.382 11.959-29.737 25.447-43.825 26.997-28.199 41.867-65.383 41.867-104.7zm-101.162 240.04c0 12.406-10.094 22.5-22.5 22.5h-46c-12.406 0-22.5-10.094-22.5-22.5v-2.891c1.799.252 3.633.391 5.5.391h80c1.867 0 3.701-.14 5.5-.391zm-5.5-17.5h-80c-13.51 0-24.5-10.99-24.5-24.5v-.5h76c4.143 0 7.5-3.357 7.5-7.5s-3.357-7.5-7.5-7.5h-76v-25h128.768l.232 25h-18c-4.143 0-7.5 3.357-7.5 7.5s3.357 7.5 7.5 7.5h18v.5c0 13.51-10.991 24.5-24.5 24.5z"/><path d="m304.177 234.285c-2.54 3.271-1.947 7.983 1.324 10.523 3.27 2.541 7.982 1.949 10.523-1.324l14.848-19.121c3.932-5.063 5.656-11.354 4.856-17.715-.801-6.361-4.03-12.029-9.094-15.961-5.063-3.932-11.358-5.666-17.715-4.855-6.361.8-12.029 4.029-15.96 9.093l-48.439 62.384-27.8-30.759c-8.875-9.816-24.082-10.582-33.897-1.711-4.756 4.299-7.553 10.192-7.877 16.595-.323 6.402 1.866 12.547 6.164 17.304l47.001 52c9.461 10.974 28.156 10.301 36.761-1.374l29.685-38.23c2.54-3.271 1.947-7.983-1.324-10.523s-7.982-1.949-10.523 1.324l-29.685 38.23c-3.222 4.378-10.253 4.633-13.785.515l-47-52c-3.328-3.682-3.04-9.384.643-12.712 3.68-3.324 9.383-3.04 12.711.643l33.8 37.396c2.946 3.416 8.802 3.22 11.488-.43l53.927-69.451c2.887-3.882 8.873-4.635 12.628-1.589 3.883 2.888 4.635 8.869 1.589 12.629z"/></g></svg>